<svg width="445" height="445" viewBox="0 0 445 445" fill="none" xmlns="http://www.w3.org/2000/svg">
<path opacity="0.3" fill-rule="evenodd" clip-rule="evenodd" d="M52.451 364.794C56.6401 369.793 61.0842 374.651 65.7833 379.35C70.4824 384.049 75.3399 388.493 80.3387 392.682L52.451 364.794ZM115.366 416.72L28.4134 329.767C24.3766 322.464 20.7831 314.982 17.6329 307.36L137.773 427.5C130.151 424.35 122.669 420.757 115.366 416.72ZM155.084 433.821C160.401 435.515 165.768 437.003 171.175 438.285L6.84762 273.958C8.13021 279.365 9.61822 284.733 11.3116 290.049L155.084 433.821ZM4.0322 260.153L184.98 441.101C189.468 441.869 193.975 442.498 198.494 442.989L2.14421 246.639C2.63492 251.158 3.26424 255.665 4.0322 260.153ZM1.17035 234.675L210.458 443.963C214.44 444.179 218.427 444.289 222.413 444.292L0.841572 222.72C0.844312 226.707 0.953902 230.693 1.17035 234.675ZM1.09276 211.981L233.152 444.04C236.772 443.868 240.388 443.608 243.998 443.26L1.87337 201.135C1.52491 204.745 1.2647 208.362 1.09276 211.981ZM3.04202 191.314L253.819 442.091C257.155 441.619 260.483 441.07 263.8 440.446L4.68747 181.333C4.06292 184.65 3.51444 187.978 3.04202 191.314ZM6.59507 172.251L272.882 438.538C275.984 437.818 279.073 437.031 282.147 436.177L8.9561 162.986C8.10161 166.06 7.3146 169.15 6.59507 172.251ZM11.4892 154.529L290.604 433.644C293.503 432.712 296.386 431.719 299.252 430.665L14.4679 145.881C13.4139 148.747 12.421 151.63 11.4892 154.529ZM17.5502 137.974L307.159 427.583C309.877 426.463 312.577 425.287 315.257 424.054L21.0791 129.876C19.8465 132.556 18.6702 135.256 17.5502 137.974ZM24.6571 122.464L322.669 420.476C325.221 419.185 327.753 417.841 330.264 416.444L28.6887 114.869C27.2923 117.38 25.9484 119.912 24.6571 122.464ZM32.7242 107.915L337.218 412.409C339.615 410.958 341.991 409.458 344.344 407.909L37.2243 100.789C35.6747 103.142 34.1747 105.518 32.7242 107.915ZM41.69 94.2649L350.868 403.443C353.119 401.842 355.347 400.194 357.551 398.499L46.6339 87.5822C44.9388 89.7857 43.2909 92.0137 41.69 94.2649ZM51.5102 81.4689L363.664 393.623C365.775 391.878 367.861 390.088 369.92 388.252L56.8807 75.2128C55.0455 77.2726 53.2553 79.3584 51.5102 81.4689ZM62.1542 69.4967L375.636 382.979C376.885 381.787 378.123 380.577 379.35 379.35C380.065 378.635 380.774 377.916 381.478 377.193L67.9397 63.6555C67.2173 64.3589 66.4984 65.0681 65.7833 65.7833C64.5562 67.0104 63.3465 68.2483 62.1542 69.4967ZM73.6029 58.3291L386.804 371.53C388.658 369.49 390.467 367.423 392.231 365.331L79.8023 52.902C77.7105 54.6662 75.6436 56.4752 73.6029 58.3291ZM85.8612 47.9713L397.162 359.272C398.876 357.088 400.544 354.88 402.164 352.648L92.4854 42.9688C90.2535 44.5895 88.045 46.257 85.8612 47.9713ZM98.9527 38.4466L406.687 346.18C408.256 343.848 409.777 341.492 411.248 339.115L106.018 33.8851C103.641 35.3565 101.285 36.8769 98.9527 38.4466ZM112.913 29.79L415.343 332.22C416.761 329.731 418.126 327.221 419.44 324.691L120.443 25.6933C117.912 27.0068 115.402 28.3724 112.913 29.79ZM127.79 22.0516L423.082 317.343C424.337 314.686 425.537 312.01 426.681 309.315L135.818 18.4522C133.123 19.5962 130.447 20.796 127.79 22.0516ZM143.655 15.3002L429.833 301.478C430.912 298.638 431.931 295.781 432.889 292.908L152.225 12.2437C149.352 13.2021 146.495 14.221 143.655 15.3002ZM160.604 9.6325L435.501 284.529C436.384 281.485 437.2 278.425 437.95 275.352L169.781 7.18301C166.708 7.93297 163.648 8.74948 160.604 9.6325ZM178.773 5.18521L439.948 266.36C440.606 263.079 441.189 259.786 441.697 256.483L188.65 3.43573C185.347 3.94415 182.054 4.52732 178.773 5.18521ZM198.363 2.15858L442.975 246.771C443.364 243.205 443.667 239.631 443.884 236.053L209.08 1.24953C205.502 1.46623 201.929 1.76925 198.363 2.15858ZM219.68 0.860191L444.273 225.453C444.324 221.524 444.271 217.594 444.114 213.667L231.466 1.01908C227.539 0.862325 223.609 0.809359 219.68 0.860191ZM243.238 1.80133L443.332 201.895C442.919 197.462 442.373 193.038 441.695 188.631L256.502 3.43858C252.095 2.75974 247.671 2.21401 243.238 1.80133ZM269.999 5.94661L439.187 175.134C438.042 169.884 436.706 164.668 435.176 159.497L285.636 9.9566C280.465 8.42757 275.249 7.0909 269.999 5.94661ZM302.273 15.6044L429.529 142.86C426.793 135.746 423.678 128.744 420.183 121.887L323.246 24.9503C316.389 21.4549 309.387 18.3396 302.273 15.6044ZM351.241 41.9557L403.177 93.8921C396.139 84.0374 388.196 74.6296 379.35 65.7833C370.504 56.937 361.096 48.9944 351.241 41.9557Z" fill="url(#paint0_linear_2073_2696)"/>
<defs>
<linearGradient id="paint0_linear_2073_2696" x1="65.7833" y1="65.7833" x2="384.851" y2="384.851" gradientUnits="userSpaceOnUse">
<stop stop-color="white"/>
<stop offset="1" stop-color="white" stop-opacity="0"/>
</linearGradient>
</defs>
</svg>
